<svg width="749" height="945" viewBox="0 0 749 945" fill="none" xmlns="http://www.w3.org/2000/svg">
<rect width="749" height="945" fill="white"/>
<path fill-rule="evenodd" clip-rule="evenodd" d="M420 354.177L429.176 345H458.588V383.588H420V354.177ZM460.706 345H499.294V374.412L489.882 383.588H469.882L460.706 374.412V345ZM510.588 385.706L501.412 394.882V415.118L510.588 424.294H540V385.706H510.588ZM460.706 465H499.294V435.588L489.882 426.412H469.882L460.706 435.588V465ZM540 465V435.588L530.823 426.412H501.412V465H540ZM501.412 345V374.412L510.588 383.588H540V345H501.412ZM474.588 405C474.588 407.824 476.941 410.412 480 410.412C483.059 410.412 485.412 408.059 485.412 405C485.412 402.176 483.059 399.588 480 399.588C477.177 399.588 474.588 401.941 474.588 405ZM458.588 385.706H420V424.294H449.176L458.588 415.118V385.706ZM449.176 426.412L458.588 435.588V455.824L449.176 465H420V426.412H449.176Z" fill="#0ECAD4"/>
<rect x="20" y="597" width="200" height="328" fill="#F4F7FA"/>
<g clip-path="url(#clip0)">
<path fill-rule="evenodd" clip-rule="evenodd" d="M479.996 673.405C493.454 673.405 505.708 678.563 514.894 687.006C510.391 686.886 505.899 689.562 505.713 695.69C505.334 708.079 520.527 710.718 512.341 735.638L505.569 756.25L487.126 701.923C486.84 701.082 487.172 700.603 488.206 700.603H493.42C493.691 700.603 493.913 700.372 493.913 700.089V697C493.913 696.717 493.691 696.474 493.42 696.486C483.546 696.917 473.73 696.92 463.973 696.486C463.701 696.474 463.48 696.718 463.48 697.001V700.09C463.48 700.373 463.702 700.604 463.973 700.604H469.216C470.382 700.604 470.708 700.993 470.983 701.745L478.561 722.469L467.162 756.89L448.424 701.698C448.192 701.006 448.473 700.604 449.139 700.604H455.113C455.384 700.604 455.606 700.373 455.606 700.089V697.001C455.606 696.718 455.383 696.472 455.113 696.486C448.845 696.819 442.554 696.886 436.693 696.946C445.89 682.779 461.848 673.404 479.993 673.404L479.993 673.404L479.996 673.405ZM525.371 700.43C529.335 707.734 531.586 716.102 531.586 724.994C531.586 744.509 520.743 761.494 504.757 770.262L520.847 724.69C523.339 717.637 525.653 708.105 525.37 700.43H525.369H525.371ZM497.268 773.616C491.867 775.537 486.055 776.585 479.996 776.585C474.776 776.585 469.74 775.807 464.992 774.366L480.885 728.82L497.268 773.618V773.618L497.268 773.616ZM457.92 771.632C440.474 763.358 428.405 745.584 428.405 724.996C428.405 717.365 430.066 710.12 433.041 703.602L457.921 771.633L457.921 771.633L457.92 771.632ZM479.995 668.564C511.154 668.564 536.425 693.835 536.425 724.994C536.425 756.154 511.154 781.424 479.995 781.424C448.835 781.424 423.565 756.154 423.565 724.994C423.565 693.835 448.835 668.564 479.995 668.564V668.564ZM479.995 664.997C513.124 664.997 539.993 691.866 539.993 724.995C539.993 758.125 513.124 784.994 479.995 784.994C446.865 784.994 419.997 758.125 419.997 724.995C419.997 691.866 446.865 664.997 479.995 664.997V664.997Z" fill="#387193"/>
</g>
<g clip-path="url(#clip1)">
<path d="M119.312 885.494C118.916 885.494 118.522 885.39 118.175 885.19L114.557 883.048C114.017 882.746 114.28 882.639 114.459 882.578C115.179 882.325 115.325 882.268 116.094 881.832C116.175 881.785 116.281 881.802 116.364 881.851L119.143 883.5C119.244 883.554 119.386 883.554 119.479 883.5L130.316 877.244C130.416 877.188 130.482 877.071 130.482 876.952V864.446C130.482 864.321 130.416 864.21 130.314 864.148L119.481 857.898C119.381 857.838 119.248 857.838 119.148 857.898L108.317 864.148C108.212 864.207 108.145 864.324 108.145 864.443V876.949C108.145 877.068 108.21 877.182 108.313 877.239L111.281 878.953C112.892 879.759 113.877 878.81 113.877 877.855V865.512C113.877 865.336 114.015 865.2 114.192 865.2H115.564C115.735 865.2 115.876 865.336 115.876 865.512V877.86C115.876 880.009 114.704 881.243 112.667 881.243C112.041 881.243 111.547 881.243 110.169 880.565L107.326 878.926C106.623 878.519 106.189 877.76 106.189 876.949V864.443C106.189 863.63 106.623 862.87 107.326 862.469L118.174 856.211C118.86 855.823 119.772 855.823 120.453 856.211L131.287 862.471C131.987 862.876 132.424 863.632 132.424 864.446V876.952C132.424 877.763 131.987 878.519 131.287 878.926L120.453 885.184C120.105 885.385 119.712 885.488 119.311 885.488" fill="#689F63"/>
<path d="M122.659 876.877C117.917 876.877 116.923 874.7 116.923 872.875C116.923 872.701 117.063 872.563 117.237 872.563H118.637C118.791 872.563 118.921 872.675 118.946 872.828C119.157 874.254 119.787 874.974 122.654 874.974C124.938 874.974 125.909 874.458 125.909 873.247C125.909 872.549 125.633 872.031 122.084 871.684C119.117 871.391 117.283 870.737 117.283 868.364C117.283 866.177 119.128 864.875 122.217 864.875C125.687 864.875 127.407 866.08 127.624 868.668C127.632 868.757 127.599 868.844 127.54 868.909C127.48 868.971 127.396 869.009 127.309 869.009H125.901C125.755 869.009 125.627 868.906 125.597 868.765C125.258 867.265 124.439 866.785 122.212 866.785C119.719 866.785 119.429 867.653 119.429 868.304C119.429 869.094 119.77 869.324 123.134 869.769C126.465 870.211 128.047 870.835 128.047 873.176C128.047 875.536 126.077 876.89 122.643 876.89L122.659 876.877ZM135.843 863.628H136.206C136.505 863.628 136.562 863.419 136.562 863.297C136.562 862.976 136.342 862.976 136.22 862.976H135.846L135.843 863.628ZM135.401 862.602H136.206C136.483 862.602 137.026 862.602 137.026 863.221C137.026 863.652 136.749 863.741 136.584 863.796C136.906 863.817 136.928 864.029 136.971 864.327C136.993 864.515 137.028 864.837 137.093 864.946H136.597C136.584 864.837 136.508 864.241 136.508 864.208C136.475 864.075 136.429 864.01 136.263 864.01H135.854V864.949H135.401V862.602ZM134.432 863.769C134.432 864.74 135.216 865.526 136.179 865.526C137.15 865.526 137.934 864.723 137.934 863.769C137.934 862.795 137.14 862.022 136.177 862.022C135.227 862.022 134.43 862.784 134.43 863.766L134.432 863.769ZM138.271 863.774C138.271 864.924 137.329 865.863 136.182 865.863C135.043 865.863 134.093 864.935 134.093 863.774C134.093 862.591 135.064 861.685 136.182 861.685C137.308 861.685 138.268 862.594 138.268 863.774" fill="#689F63"/>
<path fill-rule="evenodd" clip-rule="evenodd" d="M85.7529 836.563C85.7529 836.064 85.4897 835.606 85.059 835.357L73.5692 828.747C73.3753 828.633 73.158 828.573 72.9377 828.565H72.8189C72.5987 828.573 72.3814 828.633 72.1842 828.747L60.695 835.357C60.2669 835.607 60 836.065 60 836.565L60.0252 854.37C60.0252 854.617 60.1527 854.848 60.3697 854.97C60.5813 855.1 60.8472 855.1 61.0587 854.97L67.8892 851.058C68.3205 850.802 68.5837 850.348 68.5837 849.854V841.536C68.5837 841.039 68.8468 840.581 69.2767 840.334L72.1847 838.659C72.4006 838.534 72.6377 838.472 72.8791 838.472C73.1168 838.472 73.3593 838.534 73.5692 838.659L76.4759 840.333C76.9061 840.58 77.1703 841.038 77.1703 841.535V849.853C77.1703 850.346 77.4369 850.802 77.8661 851.057L84.6922 854.966C84.9065 855.093 85.1732 855.093 85.3867 854.966C85.5972 854.844 85.7306 854.613 85.7306 854.366L85.7529 836.563ZM139.97 845.834C139.97 845.958 139.904 846.073 139.797 846.134L135.85 848.409C135.743 848.47 135.611 848.47 135.504 848.409L131.557 846.134C131.448 846.072 131.383 845.958 131.383 845.834V841.278C131.383 841.154 131.448 841.039 131.554 840.977L135.498 838.698C135.607 838.636 135.74 838.636 135.848 838.698L139.795 840.977C139.904 841.039 139.969 841.154 139.969 841.278L139.97 845.834ZM141.036 812.088C140.821 811.968 140.559 811.971 140.346 812.095C140.135 812.22 140.004 812.448 140.004 812.695V830.327C140.004 830.501 139.912 830.661 139.761 830.748C139.612 830.834 139.426 830.834 139.276 830.748L136.398 829.09C135.969 828.842 135.441 828.842 135.011 829.09L123.517 835.723C123.088 835.97 122.823 836.428 122.823 836.922V850.192C122.823 850.689 123.088 851.145 123.517 851.394L135.011 858.032C135.44 858.279 135.968 858.279 136.399 858.032L147.892 851.391C148.321 851.142 148.587 850.686 148.587 850.19V817.117C148.587 816.614 148.313 816.151 147.873 815.904L141.036 812.088ZM179.31 841.158C179.737 840.91 180 840.452 180 839.958V836.742C180 836.247 179.737 835.791 179.309 835.542L167.889 828.912C167.457 828.663 166.928 828.663 166.497 828.912L155.006 835.545C154.575 835.794 154.312 836.25 154.312 836.746V850.011C154.312 850.51 154.58 850.972 155.012 851.218L166.429 857.726C166.85 857.967 167.365 857.97 167.791 857.734L174.697 853.896C174.914 853.774 175.053 853.543 175.053 853.294C175.053 853.044 174.92 852.811 174.703 852.689L163.141 846.053C162.924 845.931 162.791 845.701 162.791 845.454V841.293C162.791 841.044 162.922 840.815 163.139 840.692L166.736 838.616C166.95 838.492 167.213 838.492 167.427 838.616L171.027 840.692C171.241 840.814 171.374 841.044 171.374 841.291V844.563C171.374 844.809 171.507 845.04 171.721 845.165C171.936 845.287 172.202 845.287 172.416 845.162L179.31 841.158Z" fill="#333333"/>
<path fill-rule="evenodd" clip-rule="evenodd" d="M167.025 840.537C167.106 840.489 167.208 840.489 167.291 840.537L169.496 841.809C169.578 841.857 169.629 841.945 169.629 842.04V844.587C169.629 844.682 169.578 844.77 169.496 844.818L167.291 846.09C167.208 846.138 167.106 846.138 167.025 846.09L164.821 844.818C164.737 844.77 164.685 844.682 164.685 844.587V842.04C164.685 841.945 164.734 841.857 164.818 841.809L167.025 840.537Z" fill="#689F63"/>
<path d="M128.646 834.455L96.4423 818.67L79.9304 852.354L112.133 868.139L128.646 834.455Z" fill="url(#paint0_linear)"/>
<path d="M77.8395 839.123L100.578 869.899L130.651 847.681L107.911 816.906L77.8395 839.123Z" fill="url(#paint1_linear)"/>
<path d="M92.2032 828.796V857.938H117.074V828.796H92.2032Z" fill="url(#paint2_linear)"/>
</g>
<path d="M260 725L270 730.774V719.226L260 725ZM380 725L370 719.226V730.774L380 725ZM269 726H371V724H269V726Z" fill="#002838"/>
<path d="M480 505L474.226 515L485.774 515L480 505ZM480 625L485.773 615L474.226 615L480 625ZM479 514L479 616L481 616L481 514L479 514Z" fill="#002838"/>
<path d="M391 165L391.493 176.536L401.237 170.342L391 165ZM394.984 173.132L479.156 305.536L480.844 304.464L396.672 172.059L394.984 173.132Z" fill="#002838"/>
<path d="M569 165L568.507 176.536L558.763 170.342L569 165ZM479.156 304.464L563.328 172.059L565.016 173.132L480.844 305.536L479.156 304.464Z" fill="#002838"/>
<path d="M122 625V622.059H120V625H122ZM122 616.176V610.294H120V616.176H122ZM122 604.412V598.529H120V604.412H122ZM122 592.647V586.765H120V592.647H122ZM122 580.882V575H120V580.882H122ZM122 569.118V563.235H120V569.118H122ZM122 557.353V551.471H120V557.353H122ZM122 545.588V539.706H120V545.588H122ZM122 533.824V527.941H120V533.824H122ZM122 522.059V516.176H120V522.059H122ZM122 510.294V504.412H120V510.294H122ZM122 498.529V492.647H120V498.529H122ZM122 486.765V480.882H120V486.765H122ZM122 475V469.118H120V475H122ZM122 463.235V457.353H120V463.235H122ZM122 451.471V445.588H120V451.471H122ZM122 439.706V433.823H120V439.706H122ZM122 427.941V425H120V427.941H122ZM122 425C122 424.158 122.055 423.329 122.161 422.517L120.177 422.258C120.06 423.156 120 424.071 120 425H122ZM123.441 417.727C124.082 416.183 124.92 414.741 125.925 413.434L124.339 412.215C123.229 413.66 122.302 415.253 121.594 416.961L123.441 417.727ZM129.434 409.925C130.741 408.92 132.183 408.082 133.727 407.441L132.961 405.594C131.253 406.302 129.66 407.229 128.215 408.339L129.434 409.925ZM138.517 406.161C139.329 406.055 140.158 406 141 406V404C140.071 404 139.156 404.06 138.258 404.177L138.517 406.161ZM141 406H143.949V404H141V406ZM149.847 406H155.745V404H149.847V406ZM161.644 406H167.542V404H161.644V406ZM173.44 406H179.338V404H173.44V406ZM185.236 406H191.134V404H185.236V406ZM197.032 406H202.931V404H197.032V406ZM208.829 406H214.727V404H208.829V406ZM220.625 406H226.523V404H220.625V406ZM232.421 406H238.319V404H232.421V406ZM244.218 406H250.116V404H244.218V406ZM256.014 406H261.912V404H256.014V406ZM267.81 406H273.708V404H267.81V406ZM279.606 406H285.505V404H279.606V406ZM291.403 406H297.301V404H291.403V406ZM303.199 406H309.097V404H303.199V406ZM314.995 406H320.894V404H314.995V406ZM326.792 406H332.69V404H326.792V406ZM338.588 406H344.486V404H338.588V406ZM350.384 406H356.282V404H350.384V406ZM362.181 406H368.079V404H362.181V406ZM373.977 406H379.875V404H373.977V406ZM385.773 406H391.671V404H385.773V406ZM397.569 406H403.468V404H397.569V406ZM409.366 406H415.264V404H409.366V406ZM421.162 406H427.06V404H421.162V406ZM432.958 406H438.857V404H432.958V406ZM444.755 406H450.653V404H444.755V406ZM456.551 406H459.5V404H456.551V406ZM459.5 406C460.429 406 461.344 405.94 462.242 405.823L461.983 403.839C461.171 403.945 460.342 404 459.5 404V406ZM467.539 404.406C469.247 403.698 470.84 402.771 472.285 401.661L471.066 400.075C469.759 401.08 468.317 401.918 466.773 402.559L467.539 404.406ZM476.161 397.785C477.271 396.34 478.198 394.747 478.906 393.039L477.059 392.273C476.418 393.817 475.58 395.259 474.575 396.566L476.161 397.785ZM480.323 387.742C480.44 386.844 480.5 385.929 480.5 385H478.5C478.5 385.842 478.445 386.671 478.339 387.483L480.323 387.742ZM480.5 385V382.107H478.5V385H480.5ZM480.5 376.321V370.536H478.5V376.321H480.5ZM480.5 364.75V358.964H478.5V364.75H480.5ZM480.5 353.179V347.393H478.5V353.179H480.5ZM480.5 341.607V335.821H478.5V341.607H480.5ZM480.5 330.036V324.25H478.5V330.036H480.5ZM480.5 318.464V312.679H478.5V318.464H480.5ZM480.5 306.893V304H478.5V306.893H480.5Z" fill="#002838"/>
<path d="M290.281 703.648H291.062C291.828 703.648 292.393 703.521 292.758 703.266C293.122 703.01 293.305 702.609 293.305 702.062C293.305 701.521 293.117 701.135 292.742 700.906C292.372 700.677 291.797 700.562 291.016 700.562H290.281V703.648ZM290.281 705.617V710H287.859V698.578H291.188C292.74 698.578 293.888 698.862 294.633 699.43C295.378 699.992 295.75 700.849 295.75 702C295.75 702.672 295.565 703.271 295.195 703.797C294.826 704.318 294.302 704.727 293.625 705.023C295.344 707.591 296.464 709.25 296.984 710H294.297L291.57 705.617H290.281ZM305 710H298.422V698.578H305V700.562H300.844V703.07H304.711V705.055H300.844V708H305V710ZM314.133 706.828C314.133 707.859 313.76 708.672 313.016 709.266C312.276 709.859 311.245 710.156 309.922 710.156C308.703 710.156 307.625 709.927 306.688 709.469V707.219C307.458 707.562 308.109 707.805 308.641 707.945C309.177 708.086 309.667 708.156 310.109 708.156C310.641 708.156 311.047 708.055 311.328 707.852C311.615 707.648 311.758 707.346 311.758 706.945C311.758 706.721 311.695 706.523 311.57 706.352C311.445 706.174 311.26 706.005 311.016 705.844C310.776 705.682 310.284 705.424 309.539 705.07C308.841 704.742 308.318 704.427 307.969 704.125C307.62 703.823 307.341 703.471 307.133 703.07C306.924 702.669 306.82 702.201 306.82 701.664C306.82 700.654 307.161 699.859 307.844 699.281C308.531 698.703 309.479 698.414 310.688 698.414C311.281 698.414 311.846 698.484 312.383 698.625C312.924 698.766 313.49 698.964 314.078 699.219L313.297 701.102C312.688 700.852 312.182 700.677 311.781 700.578C311.385 700.479 310.995 700.43 310.609 700.43C310.151 700.43 309.799 700.536 309.555 700.75C309.31 700.964 309.188 701.242 309.188 701.586C309.188 701.799 309.237 701.987 309.336 702.148C309.435 702.305 309.591 702.458 309.805 702.609C310.023 702.755 310.536 703.021 311.344 703.406C312.411 703.917 313.143 704.43 313.539 704.945C313.935 705.456 314.133 706.083 314.133 706.828ZM320.609 710H318.188V700.594H315.086V698.578H323.711V700.594H320.609V710ZM336.617 710L335.789 707.281H331.625L330.797 710H328.188L332.219 698.531H335.18L339.227 710H336.617ZM335.211 705.25C334.445 702.786 334.013 701.393 333.914 701.07C333.82 700.747 333.753 700.492 333.711 700.305C333.539 700.971 333.047 702.62 332.234 705.25H335.211ZM343.094 703.953H343.891C344.635 703.953 345.193 703.807 345.562 703.516C345.932 703.219 346.117 702.789 346.117 702.227C346.117 701.659 345.961 701.24 345.648 700.969C345.341 700.698 344.857 700.562 344.195 700.562H343.094V703.953ZM348.562 702.141C348.562 703.37 348.177 704.31 347.406 704.961C346.641 705.612 345.549 705.938 344.133 705.938H343.094V710H340.672V698.578H344.32C345.706 698.578 346.758 698.878 347.477 699.477C348.201 700.07 348.562 700.958 348.562 702.141ZM350.719 710V698.578H353.141V710H350.719Z" fill="#002838"/>
<path d="M263.531 378.578H267.086C268.706 378.578 269.88 378.81 270.609 379.273C271.344 379.732 271.711 380.464 271.711 381.469C271.711 382.151 271.549 382.711 271.227 383.148C270.909 383.586 270.484 383.849 269.953 383.938V384.016C270.677 384.177 271.198 384.479 271.516 384.922C271.839 385.365 272 385.953 272 386.688C272 387.729 271.622 388.542 270.867 389.125C270.117 389.708 269.096 390 267.805 390H263.531V378.578ZM265.953 383.102H267.359C268.016 383.102 268.49 383 268.781 382.797C269.078 382.594 269.227 382.258 269.227 381.789C269.227 381.352 269.065 381.039 268.742 380.852C268.424 380.659 267.919 380.562 267.227 380.562H265.953V383.102ZM265.953 385.023V388H267.531C268.198 388 268.69 387.872 269.008 387.617C269.326 387.362 269.484 386.971 269.484 386.445C269.484 385.497 268.807 385.023 267.453 385.023H265.953ZM280.281 390L279.961 388.883H279.836C279.581 389.289 279.219 389.604 278.75 389.828C278.281 390.047 277.747 390.156 277.148 390.156C276.122 390.156 275.349 389.883 274.828 389.336C274.307 388.784 274.047 387.992 274.047 386.961V381.266H276.43V386.367C276.43 386.997 276.542 387.471 276.766 387.789C276.99 388.102 277.346 388.258 277.836 388.258C278.503 388.258 278.984 388.036 279.281 387.594C279.578 387.146 279.727 386.406 279.727 385.375V381.266H282.109V390H280.281ZM284.508 379.008C284.508 378.232 284.94 377.844 285.805 377.844C286.669 377.844 287.102 378.232 287.102 379.008C287.102 379.378 286.992 379.667 286.773 379.875C286.56 380.078 286.237 380.18 285.805 380.18C284.94 380.18 284.508 379.789 284.508 379.008ZM286.992 390H284.609V381.266H286.992V390ZM291.883 390H289.5V377.844H291.883V390ZM297.156 390.156C296.13 390.156 295.323 389.758 294.734 388.961C294.151 388.164 293.859 387.06 293.859 385.648C293.859 384.216 294.156 383.102 294.75 382.305C295.349 381.503 296.172 381.102 297.219 381.102C298.318 381.102 299.156 381.529 299.734 382.383H299.812C299.693 381.732 299.633 381.151 299.633 380.641V377.844H302.023V390H300.195L299.734 388.867H299.633C299.091 389.727 298.266 390.156 297.156 390.156ZM297.992 388.258C298.602 388.258 299.047 388.081 299.328 387.727C299.615 387.372 299.771 386.771 299.797 385.922V385.664C299.797 384.727 299.651 384.055 299.359 383.648C299.073 383.242 298.604 383.039 297.953 383.039C297.422 383.039 297.008 383.266 296.711 383.719C296.419 384.167 296.273 384.82 296.273 385.68C296.273 386.539 296.422 387.185 296.719 387.617C297.016 388.044 297.44 388.258 297.992 388.258ZM319.422 390H316.477L315.578 389.117C314.583 389.81 313.458 390.156 312.203 390.156C310.932 390.156 309.924 389.865 309.18 389.281C308.435 388.698 308.062 387.909 308.062 386.914C308.062 386.201 308.219 385.594 308.531 385.094C308.849 384.589 309.391 384.117 310.156 383.68C309.766 383.232 309.482 382.805 309.305 382.398C309.128 381.987 309.039 381.539 309.039 381.055C309.039 380.263 309.341 379.625 309.945 379.141C310.555 378.656 311.367 378.414 312.383 378.414C313.352 378.414 314.125 378.641 314.703 379.094C315.286 379.542 315.578 380.143 315.578 380.898C315.578 381.518 315.398 382.086 315.039 382.602C314.68 383.112 314.099 383.599 313.297 384.062L315.516 386.227C315.885 385.617 316.206 384.833 316.477 383.875H318.961C318.773 384.578 318.516 385.266 318.188 385.938C317.859 386.604 317.487 387.195 317.07 387.711L319.422 390ZM310.57 386.688C310.57 387.135 310.737 387.492 311.07 387.758C311.409 388.023 311.841 388.156 312.367 388.156C313.023 388.156 313.615 387.997 314.141 387.68L311.547 385.102C311.245 385.331 311.005 385.57 310.828 385.82C310.656 386.07 310.57 386.359 310.57 386.688ZM313.375 381.148C313.375 380.872 313.281 380.656 313.094 380.5C312.906 380.339 312.664 380.258 312.367 380.258C312.018 380.258 311.742 380.341 311.539 380.508C311.341 380.674 311.242 380.911 311.242 381.219C311.242 381.677 311.49 382.182 311.984 382.734C312.432 382.484 312.776 382.24 313.016 382C313.255 381.755 313.375 381.471 313.375 381.148ZM334.492 384.18C334.492 386.06 333.956 387.5 332.883 388.5C331.815 389.5 330.271 390 328.25 390H325.016V378.578H328.602C330.466 378.578 331.914 379.07 332.945 380.055C333.977 381.039 334.492 382.414 334.492 384.18ZM331.977 384.242C331.977 381.789 330.893 380.562 328.727 380.562H327.438V388H328.477C330.81 388 331.977 386.747 331.977 384.242ZM340.289 382.797C339.784 382.797 339.388 382.958 339.102 383.281C338.815 383.599 338.651 384.052 338.609 384.641H341.953C341.943 384.052 341.789 383.599 341.492 383.281C341.195 382.958 340.794 382.797 340.289 382.797ZM340.625 390.156C339.219 390.156 338.12 389.768 337.328 388.992C336.536 388.216 336.141 387.117 336.141 385.695C336.141 384.232 336.505 383.102 337.234 382.305C337.969 381.503 338.982 381.102 340.273 381.102C341.508 381.102 342.469 381.453 343.156 382.156C343.844 382.859 344.188 383.831 344.188 385.07V386.227H338.555C338.581 386.904 338.781 387.432 339.156 387.812C339.531 388.193 340.057 388.383 340.734 388.383C341.26 388.383 341.758 388.328 342.227 388.219C342.695 388.109 343.185 387.935 343.695 387.695V389.539C343.279 389.747 342.833 389.901 342.359 390C341.885 390.104 341.307 390.156 340.625 390.156ZM350.922 390.156C349.896 390.156 349.091 389.784 348.508 389.039H348.383C348.466 389.768 348.508 390.19 348.508 390.305V393.844H346.125V381.266H348.062L348.398 382.398H348.508C349.065 381.534 349.891 381.102 350.984 381.102C352.016 381.102 352.823 381.5 353.406 382.297C353.99 383.094 354.281 384.201 354.281 385.617C354.281 386.549 354.143 387.359 353.867 388.047C353.596 388.734 353.208 389.258 352.703 389.617C352.198 389.977 351.604 390.156 350.922 390.156ZM350.219 383.008C349.63 383.008 349.201 383.19 348.93 383.555C348.659 383.914 348.518 384.51 348.508 385.344V385.602C348.508 386.539 348.646 387.211 348.922 387.617C349.203 388.023 349.646 388.227 350.25 388.227C351.318 388.227 351.852 387.346 351.852 385.586C351.852 384.727 351.719 384.083 351.453 383.656C351.193 383.224 350.781 383.008 350.219 383.008ZM358.633 390H356.25V377.844H358.633V390ZM363.039 385.617C363.039 386.482 363.18 387.135 363.461 387.578C363.747 388.021 364.211 388.242 364.852 388.242C365.487 388.242 365.943 388.023 366.219 387.586C366.5 387.143 366.641 386.487 366.641 385.617C366.641 384.753 366.5 384.104 366.219 383.672C365.938 383.24 365.477 383.023 364.836 383.023C364.201 383.023 363.742 383.24 363.461 383.672C363.18 384.099 363.039 384.747 363.039 385.617ZM369.078 385.617C369.078 387.039 368.703 388.151 367.953 388.953C367.203 389.755 366.159 390.156 364.82 390.156C363.982 390.156 363.242 389.974 362.602 389.609C361.961 389.24 361.469 388.711 361.125 388.023C360.781 387.336 360.609 386.534 360.609 385.617C360.609 384.19 360.982 383.081 361.727 382.289C362.471 381.497 363.518 381.102 364.867 381.102C365.706 381.102 366.445 381.284 367.086 381.648C367.727 382.013 368.219 382.536 368.562 383.219C368.906 383.901 369.078 384.701 369.078 385.617ZM369.797 381.266H372.406L374.055 386.18C374.195 386.607 374.292 387.112 374.344 387.695H374.391C374.448 387.159 374.56 386.654 374.727 386.18L376.344 381.266H378.898L375.203 391.117C374.865 392.029 374.38 392.711 373.75 393.164C373.125 393.617 372.393 393.844 371.555 393.844C371.143 393.844 370.74 393.799 370.344 393.711V391.82C370.63 391.888 370.943 391.922 371.281 391.922C371.703 391.922 372.07 391.792 372.383 391.531C372.701 391.276 372.948 390.888 373.125 390.367L373.266 389.938L369.797 381.266Z" fill="#002838"/>
<path d="M338.202 112.603H336.307V120.683H338.202V112.603Z" fill="#80939B"/>
<path d="M344.795 25.8756L244.048 26.1402L244.11 50.1468L344.858 49.8822L344.795 25.8756Z" fill="white"/>
<path d="M243.954 57.4177H236.98V59.1572H243.954V57.4177Z" fill="#80939B"/>
<path d="M265.638 113.208L263.904 113.212L263.923 120.213L265.657 120.209L265.638 113.208Z" fill="#80939B"/>
<path d="M236.445 121.158L236.341 80.1886L238.075 80.1838L238.174 119.414L337.861 119.29V121.03L236.445 121.158Z" fill="#80939B"/>
<path d="M236.322 72.5983L236.217 32.1373L244.068 32.1135L244.073 33.8578L237.956 33.8721L238.056 72.5935L236.322 72.5983Z" fill="#80939B"/>
<path d="M294.376 51.9091L294.371 50.1695L344.854 50.122L344.859 51.8616L294.376 51.9091Z" fill="#002838"/>
<path d="M244.116 52.123L244.111 50.3834L285.563 50.1981L285.568 51.9424L244.116 52.123Z" fill="#002838"/>
<path d="M272.565 91.179L270.831 91.1836L270.888 113.199L272.622 113.194L272.565 91.179Z" fill="#002838"/>
<path d="M272.456 51.1795L270.721 51.1841L270.807 84.0356L272.541 84.0311L272.456 51.1795Z" fill="#002838"/>
<path d="M243.405 114.143L243.301 73.1686L245.035 73.1638L245.134 112.399L344.247 112.275V114.015L243.405 114.143Z" fill="#002838"/>
<path d="M345.783 114.029H343.887L343.838 45.1125H345.734L345.783 114.029Z" fill="#002838"/>
<path d="M345.682 24.6956L243.091 24.965L243.157 50.2113L345.748 49.9419L345.682 24.6956Z" fill="white"/>
<path d="M255.605 41.5241C257.502 41.5241 259.04 39.9813 259.04 38.0783C259.04 36.1752 257.502 34.6324 255.605 34.6324C253.708 34.6324 252.17 36.1752 252.17 38.0783C252.17 39.9813 253.708 41.5241 255.605 41.5241Z" fill="#002838"/>
<path d="M269.345 41.4908C271.242 41.4908 272.78 39.9481 272.78 38.045C272.78 36.1419 271.242 34.5992 269.345 34.5992C267.448 34.5992 265.91 36.1419 265.91 38.045C265.91 39.9481 267.448 41.4908 269.345 41.4908Z" fill="#002838"/>
<path d="M315.289 26.6524L244.916 26.8568L245.016 65.5735L243.282 65.5783L243.177 25.122L315.289 24.9129V26.6524Z" fill="#002838"/>
<path d="M716.202 112.603H714.307V120.683H716.202V112.603Z" fill="#80939B"/>
<path d="M722.795 25.8756L622.048 26.1402L622.11 50.1468L722.858 49.8822L722.795 25.8756Z" fill="white"/>
<path d="M621.954 57.4177H614.98V59.1572H621.954V57.4177Z" fill="#80939B"/>
<path d="M643.638 113.208L641.904 113.212L641.923 120.213L643.657 120.209L643.638 113.208Z" fill="#80939B"/>
<path d="M614.445 121.158L614.341 80.1886L616.075 80.1838L616.174 119.414L715.861 119.29V121.03L614.445 121.158Z" fill="#80939B"/>
<path d="M614.322 72.5983L614.217 32.1373L622.068 32.1135L622.073 33.8578L615.956 33.8721L616.056 72.5935L614.322 72.5983Z" fill="#80939B"/>
<path d="M672.376 51.9091L672.371 50.1695L722.854 50.122L722.859 51.8616L672.376 51.9091Z" fill="#002838"/>
<path d="M622.116 52.123L622.111 50.3834L663.563 50.1981L663.568 51.9424L622.116 52.123Z" fill="#002838"/>
<path d="M650.565 91.179L648.831 91.1836L648.888 113.199L650.622 113.194L650.565 91.179Z" fill="#002838"/>
<path d="M650.456 51.1795L648.721 51.1841L648.807 84.0356L650.541 84.0311L650.456 51.1795Z" fill="#002838"/>
<path d="M621.405 114.143L621.301 73.1686L623.035 73.1638L623.134 112.399L722.247 112.275V114.015L621.405 114.143Z" fill="#002838"/>
<path d="M723.783 114.029H721.887L721.839 45.1125H723.734L723.783 114.029Z" fill="#002838"/>
<path d="M723.682 24.6956L621.091 24.965L621.157 50.2113L723.748 49.9419L723.682 24.6956Z" fill="white"/>
<path d="M633.605 41.5241C635.502 41.5241 637.04 39.9813 637.04 38.0783C637.04 36.1752 635.502 34.6324 633.605 34.6324C631.708 34.6324 630.17 36.1752 630.17 38.0783C630.17 39.9813 631.708 41.5241 633.605 41.5241Z" fill="#002838"/>
<path d="M647.345 41.4908C649.242 41.4908 650.78 39.9481 650.78 38.045C650.78 36.1419 649.242 34.5992 647.345 34.5992C645.448 34.5992 643.91 36.1419 643.91 38.045C643.91 39.9481 645.448 41.4908 647.345 41.4908Z" fill="#002838"/>
<path d="M693.289 26.6524L622.916 26.8568L623.016 65.5735L621.282 65.5783L621.177 25.122L693.289 24.9129V26.6524Z" fill="#002838"/>
<g clip-path="url(#clip2)">
<path fill-rule="evenodd" clip-rule="evenodd" d="M686.999 69.2414C690.588 69.2414 693.856 70.6167 696.305 72.8684C695.104 72.8361 693.906 73.5498 693.857 75.184C693.756 78.4877 697.807 79.1915 695.624 85.8367L693.818 91.3334L688.9 76.8461C688.824 76.6218 688.913 76.4942 689.188 76.4942H690.579C690.651 76.4942 690.71 76.4325 690.71 76.357V75.5334C690.71 75.4579 690.651 75.3931 690.579 75.3962C687.946 75.5113 685.328 75.5121 682.726 75.3962C682.654 75.3931 682.595 75.4581 682.595 75.5337V76.3572C682.595 76.4327 682.654 76.4945 682.726 76.4945H684.124C684.435 76.4945 684.522 76.5981 684.596 76.7986L686.616 82.3251L683.576 91.504L678.58 76.7862C678.518 76.6016 678.593 76.4944 678.77 76.4944H680.364C680.436 76.4944 680.495 76.4327 680.495 76.3572V75.5336C680.495 75.4581 680.436 75.3926 680.364 75.3964C678.692 75.4852 677.014 75.503 675.452 75.5191C677.904 71.7412 682.159 69.2412 686.998 69.2412L686.998 69.2411L686.999 69.2414ZM699.099 76.4479C700.156 78.3957 700.756 80.6273 700.756 82.9984C700.756 88.2024 697.865 92.7318 693.602 95.0698L697.892 82.9173C698.557 81.0365 699.174 78.4947 699.099 76.4479H699.099H699.099ZM691.605 95.9643C690.165 96.4766 688.615 96.756 686.999 96.756C685.607 96.756 684.264 96.5485 682.998 96.1644L687.236 84.0187L691.605 95.9649V95.9649L691.605 95.9643ZM681.112 95.4353C676.46 93.2288 673.241 88.4889 673.241 82.999C673.241 80.9639 673.684 79.032 674.478 77.2938L681.112 95.4355L681.112 95.4355L681.112 95.4353ZM686.999 67.9504C695.308 67.9504 702.047 74.6892 702.047 82.9984C702.047 91.3076 695.308 98.0464 686.999 98.0464C678.689 98.0464 671.951 91.3076 671.951 82.9984C671.951 74.6892 678.689 67.9504 686.999 67.9504V67.9504ZM686.999 66.9993C695.833 66.9993 702.998 74.1643 702.998 82.9988C702.998 91.8333 695.833 98.9983 686.999 98.9983C678.164 98.9983 670.999 91.8333 670.999 82.9988C670.999 74.1643 678.164 66.9993 686.999 66.9993V66.9993Z" fill="#387193"/>
</g>
<g clip-path="url(#clip3)">
<path d="M158.665 699.605C157.387 699.167 156.1 698.761 154.801 698.388C155.017 697.513 155.216 696.635 155.398 695.753C158.322 681.558 156.411 670.123 149.882 666.359C143.622 662.748 133.384 666.513 123.044 675.511C122.025 676.4 121.029 677.314 120.056 678.253C119.404 677.628 118.742 677.016 118.067 676.416C107.231 666.794 96.3687 662.74 89.8465 666.516C83.5926 670.136 81.7401 680.887 84.3727 694.339C84.6346 695.671 84.9303 696.996 85.2597 698.313C83.7227 698.75 82.2384 699.215 80.8183 699.71C68.1138 704.139 60 711.081 60 718.282C60 725.719 68.7097 733.178 81.943 737.701C83.0161 738.066 84.0977 738.404 85.1879 738.715C84.8338 740.134 84.5196 741.562 84.2452 742.999C81.7353 756.218 83.6956 766.714 89.9331 770.312C96.3756 774.026 107.188 770.208 117.717 761.005C118.55 760.277 119.384 759.508 120.221 758.696C121.275 759.713 122.356 760.7 123.465 761.656C133.664 770.432 143.736 773.976 149.969 770.368C156.405 766.642 158.497 755.367 155.781 741.649C155.574 740.601 155.334 739.532 155.061 738.441C155.821 738.217 156.565 737.985 157.293 737.744C171.05 733.187 180 725.818 180 718.282C180 711.055 171.625 704.066 158.665 699.605ZM126.409 679.378C135.268 671.668 143.548 668.624 147.321 670.8C151.339 673.117 152.902 682.463 150.378 694.718C150.212 695.517 150.032 696.312 149.838 697.104C144.552 695.906 139.191 695.059 133.793 694.569C130.7 690.126 127.311 685.897 123.65 681.909C124.548 681.043 125.468 680.199 126.409 679.378ZM95.4319 724.433C96.5171 726.529 97.6511 728.599 98.834 730.642C100.041 732.726 101.296 734.78 102.601 736.805C98.8871 736.402 95.1958 735.808 91.5423 735.027C92.6018 731.605 93.9071 728.049 95.4319 724.433ZM95.4261 712.376C93.9332 708.836 92.656 705.354 91.613 701.993C95.0368 701.226 98.6877 700.6 102.492 700.125C101.219 702.111 99.9924 704.126 98.8133 706.171C97.6361 708.212 96.507 710.281 95.4261 712.376ZM98.151 718.405C99.7305 715.117 101.432 711.893 103.255 708.731V708.732C105.077 705.572 107.016 702.484 109.074 699.469C112.642 699.199 116.302 699.058 120.001 699.058C123.716 699.058 127.38 699.2 130.948 699.472C132.983 702.48 134.91 705.558 136.729 708.704C138.558 711.856 140.282 715.066 141.903 718.332C140.3 721.63 138.581 724.868 136.746 728.046H136.746C134.928 731.203 133.009 734.3 130.989 737.334C127.429 737.589 123.749 737.72 120 737.72C116.266 737.72 112.633 737.603 109.135 737.377C107.064 734.351 105.109 731.25 103.271 728.074C101.442 724.917 99.7357 721.694 98.151 718.405H98.151ZM141.187 730.606C142.394 728.513 143.554 726.394 144.667 724.248C146.192 727.695 147.537 731.219 148.697 734.805C145.001 735.635 141.265 736.272 137.503 736.713C138.771 734.702 139.999 732.667 141.187 730.606H141.187ZM144.618 712.38C143.509 710.276 142.359 708.194 141.166 706.136C139.993 704.109 138.777 702.109 137.517 700.134C141.346 700.618 145.015 701.26 148.459 702.047C147.353 705.554 146.071 709.002 144.618 712.38H144.618ZM120.057 685.575C122.553 688.296 124.91 691.142 127.119 694.1C122.394 693.877 117.667 693.876 112.936 694.097C115.268 691.023 117.656 688.167 120.057 685.575ZM92.4148 670.952C96.4298 668.628 105.307 671.942 114.663 680.25C115.261 680.781 115.862 681.337 116.464 681.912C112.781 685.898 109.366 690.124 106.241 694.562C100.856 695.045 95.5068 695.877 90.2284 697.051C89.9223 695.826 89.6474 694.593 89.4037 693.354V693.354C87.1481 681.828 88.6458 673.134 92.4148 670.952ZM86.5634 733.778C85.5686 733.493 84.5812 733.184 83.6011 732.85C78.5192 731.251 73.775 728.731 69.6052 725.415C68.4106 724.596 67.3967 723.54 66.6263 722.313C65.8559 721.086 65.3453 719.714 65.1261 718.282C65.1261 713.913 71.6408 708.339 82.5062 704.551C83.8699 704.077 85.2466 703.644 86.6363 703.251C88.2497 708.426 90.2035 713.489 92.485 718.407C90.1749 723.394 88.1967 728.529 86.5634 733.778V733.778ZM114.344 757.144C110.42 760.748 105.867 763.599 100.911 765.554H100.91C99.6038 766.179 98.1828 766.53 96.7353 766.585C95.2877 766.639 93.8444 766.396 92.4945 765.871C88.709 763.688 87.1359 755.26 89.282 743.956C89.5372 742.62 89.8294 741.292 90.1585 739.972C95.4898 741.117 100.893 741.899 106.33 742.313C109.481 746.776 112.922 751.027 116.631 755.039C115.886 755.76 115.123 756.461 114.344 757.144ZM120.199 751.35C117.769 748.729 115.346 745.829 112.979 742.71C115.277 742.8 117.617 742.846 120 742.846C122.446 742.846 124.861 742.792 127.244 742.685C125.045 745.692 122.694 748.584 120.199 751.35V751.35ZM151.329 758.483C151.218 759.927 150.812 761.333 150.137 762.614C149.461 763.896 148.529 765.025 147.4 765.932C143.618 768.121 135.531 765.276 126.809 757.77C125.809 756.91 124.803 755.993 123.792 755.019C127.428 750.993 130.789 746.726 133.85 742.247C139.319 741.786 144.749 740.949 150.103 739.742C150.347 740.73 150.564 741.698 150.752 742.645C151.915 747.844 152.11 753.213 151.329 758.483V758.483ZM155.681 732.879H155.68C155.025 733.096 154.351 733.306 153.665 733.509C151.987 728.31 149.957 723.231 147.588 718.307C149.867 713.449 151.818 708.445 153.429 703.327C154.656 703.682 155.848 704.057 156.996 704.452C168.101 708.275 174.874 713.927 174.874 718.282C174.874 722.921 167.559 728.943 155.681 732.879V732.879Z" fill="#61DAFB"/>
<path d="M120 707.566C122.12 707.566 124.192 708.194 125.954 709.372C127.716 710.549 129.09 712.223 129.901 714.181C130.712 716.139 130.924 718.294 130.511 720.372C130.097 722.451 129.077 724.36 127.578 725.859C126.079 727.358 124.17 728.378 122.091 728.792C120.013 729.205 117.858 728.993 115.9 728.182C113.942 727.371 112.268 725.997 111.091 724.235C109.913 722.473 109.285 720.401 109.285 718.282C109.285 715.44 110.414 712.714 112.423 710.705C114.433 708.695 117.159 707.566 120 707.566" fill="#61DAFB"/>
</g>
<g clip-path="url(#clip4)">
<path d="M319.572 76.3717C319.189 76.2404 318.803 76.1188 318.414 76.0069C318.478 75.7448 318.538 75.4816 318.593 75.2172C319.469 70.9628 318.896 67.5355 316.939 66.4072C315.063 65.3251 311.995 66.4534 308.895 69.1503C308.59 69.4166 308.292 69.6906 308 69.9721C307.805 69.7849 307.606 69.6015 307.404 69.4216C304.156 66.5378 300.9 65.3226 298.946 66.4542C297.071 67.5393 296.516 70.7615 297.305 74.7934C297.384 75.1926 297.472 75.5897 297.571 75.9846C297.11 76.1155 296.665 76.2549 296.24 76.4033C292.432 77.7308 290 79.8115 290 81.9696C290 84.1987 292.61 86.4345 296.577 87.7899C296.898 87.8993 297.223 88.0007 297.549 88.094C297.443 88.5193 297.349 88.9473 297.267 89.378C296.515 93.3399 297.102 96.4856 298.972 97.5641C300.903 98.6775 304.143 97.533 307.299 94.7745C307.549 94.5565 307.799 94.3259 308.05 94.0827C308.365 94.3874 308.689 94.6831 309.022 94.9698C312.079 97.6002 315.098 98.6624 316.965 97.5811C318.895 96.4643 319.522 93.0849 318.708 88.9732C318.645 88.6592 318.574 88.3387 318.492 88.0118C318.719 87.9446 318.942 87.875 319.161 87.803C323.284 86.437 325.967 84.2285 325.967 81.9696C325.967 79.8037 323.456 77.709 319.572 76.3717ZM309.904 70.3094C312.56 67.9985 315.041 67.0861 316.172 67.7383C317.376 68.4329 317.845 71.2339 317.088 74.9072C317.038 75.1465 316.985 75.3848 316.926 75.6222C315.342 75.2631 313.735 75.0093 312.117 74.8625C311.19 73.5308 310.175 72.2631 309.077 71.0681C309.346 70.8084 309.622 70.5555 309.904 70.3094ZM300.62 83.8132C300.945 84.4414 301.285 85.0618 301.639 85.6743C302.001 86.2988 302.377 86.9145 302.769 87.5213C301.655 87.4005 300.549 87.2226 299.454 86.9884C299.771 85.963 300.163 84.8972 300.62 83.8132ZM300.618 80.1996C300.171 79.1384 299.788 78.095 299.475 77.0874C300.501 76.8577 301.596 76.6701 302.736 76.5276C302.354 77.1229 301.987 77.7269 301.633 78.3396C301.28 78.9516 300.942 79.5716 300.618 80.1996ZM301.435 82.0065C301.908 81.0212 302.418 80.0547 302.964 79.107V79.1073C303.51 78.1601 304.092 77.2347 304.708 76.331C305.778 76.2501 306.875 76.2078 307.983 76.2078C309.097 76.2078 310.195 76.2504 311.264 76.332C311.875 77.2336 312.452 78.1559 312.997 79.0989C313.545 80.0438 314.062 81.0057 314.548 81.9847C314.068 82.9732 313.552 83.9436 313.003 84.896H313.002C312.458 85.8425 311.882 86.7705 311.277 87.68C310.21 87.7562 309.107 87.7956 307.983 87.7956C306.864 87.7956 305.775 87.7607 304.727 87.6927C304.106 86.7858 303.52 85.8564 302.969 84.9045C302.421 83.9583 301.91 82.9923 301.435 82.0065H301.435ZM314.333 85.6636C314.695 85.0362 315.043 84.401 315.376 83.7579C315.834 84.791 316.237 85.847 316.584 86.9219C315.477 87.1708 314.357 87.3617 313.229 87.4938C313.609 86.8911 313.977 86.281 314.333 85.6636H314.333ZM315.362 80.2007C315.029 79.57 314.685 78.9461 314.327 78.3291C313.976 77.7218 313.611 77.1222 313.234 76.5305C314.381 76.6753 315.481 76.8679 316.513 77.1036C316.182 78.1547 315.797 79.1884 315.362 80.2007H315.362ZM308 72.1668C308.749 72.9823 309.455 73.8351 310.117 74.7219C308.701 74.655 307.284 74.6547 305.866 74.7209C306.565 73.7995 307.281 72.9434 308 72.1668ZM299.715 67.7839C300.919 67.0874 303.579 68.0806 306.384 70.5706C306.563 70.7297 306.743 70.8964 306.923 71.0688C305.819 72.2636 304.796 73.5302 303.86 74.8604C302.245 75.0052 300.642 75.2543 299.06 75.6063C298.968 75.2391 298.886 74.8697 298.813 74.4981V74.4983C298.137 71.0437 298.586 68.4379 299.715 67.7839ZM297.962 86.614C297.663 86.5287 297.367 86.436 297.074 86.3361C295.551 85.8569 294.129 85.1015 292.879 84.1076C292.521 83.862 292.217 83.5455 291.986 83.1778C291.755 82.81 291.602 82.3988 291.536 81.9696C291.536 80.6601 293.489 78.9895 296.746 77.8541C297.154 77.7122 297.567 77.5824 297.983 77.4646C298.467 79.0157 299.053 80.5332 299.736 82.007C299.044 83.5019 298.451 85.0409 297.962 86.614V86.614ZM306.288 93.6176C305.112 94.6977 303.747 95.5521 302.262 96.1381H302.262C301.87 96.3255 301.444 96.4307 301.01 96.447C300.576 96.4633 300.144 96.3905 299.739 96.233C298.605 95.5788 298.133 93.0527 298.776 89.6646C298.853 89.2642 298.94 88.8662 299.039 88.4705C300.637 88.8137 302.256 89.0482 303.886 89.1722C304.83 90.5099 305.862 91.7841 306.973 92.9866C306.75 93.2025 306.522 93.4128 306.288 93.6176ZM308.043 91.881C307.315 91.0951 306.588 90.226 305.879 89.2912C306.568 89.3183 307.269 89.3319 307.983 89.332C308.716 89.332 309.44 89.3159 310.154 89.2837C309.495 90.185 308.791 91.0518 308.043 91.8809V91.881ZM317.373 94.0186C317.34 94.4515 317.218 94.873 317.016 95.2571C316.813 95.6411 316.534 95.9795 316.196 96.2514C315.062 96.9075 312.638 96.0546 310.024 93.8052C309.724 93.5473 309.423 93.2725 309.12 92.9806C310.21 91.774 311.217 90.495 312.134 89.1526C313.773 89.0143 315.401 88.7634 317.006 88.4017C317.079 88.6978 317.144 88.9878 317.2 89.2718C317.549 90.8301 317.607 92.4392 317.373 94.0187V94.0186ZM318.678 86.3447H318.677C318.481 86.4098 318.279 86.4726 318.073 86.5336C317.57 84.9752 316.962 83.4529 316.252 81.9772C316.935 80.5213 317.52 79.0212 318.003 77.4872C318.37 77.5939 318.728 77.7061 319.072 77.8247C322.4 78.9702 324.43 80.6643 324.43 81.9696C324.43 83.36 322.238 85.165 318.678 86.3447V86.3447Z" fill="#61DAFB"/>
<path d="M307.983 78.7579C308.619 78.7579 309.24 78.9463 309.768 79.2992C310.296 79.6521 310.708 80.1537 310.951 80.7406C311.194 81.3274 311.257 81.9732 311.133 82.5962C311.01 83.2193 310.704 83.7916 310.255 84.2407C309.805 84.6899 309.233 84.9958 308.61 85.1197C307.987 85.2436 307.341 85.18 306.754 84.9369C306.167 84.6938 305.666 84.2822 305.313 83.754C304.96 83.2258 304.772 82.6048 304.772 81.9696C304.772 81.1178 305.11 80.3009 305.712 79.6986C306.315 79.0963 307.132 78.7579 307.983 78.7579" fill="#61DAFB"/>
</g>
<path fill-rule="evenodd" clip-rule="evenodd" d="M120 345C86.85 345 60 371.85 60 405C60 431.55 77.175 453.975 101.025 461.925C104.025 462.45 105.15 460.65 105.15 459.075C105.15 457.65 105.075 452.925 105.075 447.9C90 450.675 86.1 444.225 84.9 440.85C84.225 439.125 81.3 433.8 78.75 432.375C76.65 431.25 73.65 428.475 78.675 428.4C83.4 428.325 86.775 432.75 87.9 434.55C93.3 443.625 101.925 441.075 105.375 439.5C105.9 435.6 107.475 432.975 109.2 431.475C95.85 429.975 81.9 424.8 81.9 401.85C81.9 395.325 84.225 389.925 88.05 385.725C87.45 384.225 85.35 378.075 88.65 369.825C88.65 369.825 93.675 368.25 105.15 375.975C109.95 374.625 115.05 373.95 120.15 373.95C125.25 373.95 130.35 374.625 135.15 375.975C146.625 368.175 151.65 369.825 151.65 369.825C154.95 378.075 152.85 384.225 152.25 385.725C156.075 389.925 158.4 395.25 158.4 401.85C158.4 424.875 144.375 429.975 131.025 431.475C133.2 433.35 135.075 436.95 135.075 442.575C135.075 450.6 135 457.05 135 459.075C135 460.65 136.125 462.525 139.125 461.925C162.825 453.975 180 431.475 180 405C180 371.85 153.15 345 120 345Z" fill="#1B1F23"/>
<rect x="83" y="498" width="77" height="39" fill="white"/>
<path d="M98.2734 513.266V514.477L96.9062 514.828C97.1562 515.219 97.2812 515.656 97.2812 516.141C97.2812 517.078 96.9531 517.81 96.2969 518.336C95.6458 518.857 94.7396 519.117 93.5781 519.117L93.1484 519.094L92.7969 519.055C92.5521 519.242 92.4297 519.451 92.4297 519.68C92.4297 520.023 92.8672 520.195 93.7422 520.195H95.2266C96.1849 520.195 96.9141 520.401 97.4141 520.812C97.9193 521.224 98.1719 521.828 98.1719 522.625C98.1719 523.646 97.7448 524.438 96.8906 525C96.0417 525.562 94.8203 525.844 93.2266 525.844C92.0078 525.844 91.0755 525.63 90.4297 525.203C89.7891 524.781 89.4688 524.188 89.4688 523.422C89.4688 522.896 89.6328 522.456 89.9609 522.102C90.2891 521.747 90.7708 521.495 91.4062 521.344C91.1615 521.24 90.9479 521.07 90.7656 520.836C90.5833 520.596 90.4922 520.344 90.4922 520.078C90.4922 519.745 90.5885 519.469 90.7812 519.25C90.974 519.026 91.2526 518.807 91.6172 518.594C91.1589 518.396 90.7943 518.078 90.5234 517.641C90.2578 517.203 90.125 516.688 90.125 516.094C90.125 515.141 90.4349 514.404 91.0547 513.883C91.6745 513.362 92.5599 513.102 93.7109 513.102C93.9557 513.102 94.2448 513.125 94.5781 513.172C94.9167 513.214 95.1328 513.245 95.2266 513.266H98.2734ZM91.5312 523.234C91.5312 523.562 91.6875 523.82 92 524.008C92.3177 524.195 92.7604 524.289 93.3281 524.289C94.1823 524.289 94.8516 524.172 95.3359 523.938C95.8203 523.703 96.0625 523.383 96.0625 522.977C96.0625 522.648 95.9193 522.422 95.6328 522.297C95.3464 522.172 94.9036 522.109 94.3047 522.109H93.0703C92.6328 522.109 92.2656 522.211 91.9688 522.414C91.6771 522.622 91.5312 522.896 91.5312 523.234ZM92.3984 516.125C92.3984 516.599 92.5052 516.974 92.7188 517.25C92.9375 517.526 93.2682 517.664 93.7109 517.664C94.1589 517.664 94.487 517.526 94.6953 517.25C94.9036 516.974 95.0078 516.599 95.0078 516.125C95.0078 515.073 94.5755 514.547 93.7109 514.547C92.8359 514.547 92.3984 515.073 92.3984 516.125ZM99.6172 511.008C99.6172 510.232 100.049 509.844 100.914 509.844C101.779 509.844 102.211 510.232 102.211 511.008C102.211 511.378 102.102 511.667 101.883 511.875C101.669 512.078 101.346 512.18 100.914 512.18C100.049 512.18 99.6172 511.789 99.6172 511.008ZM102.102 522H99.7188V513.266H102.102V522ZM108.289 520.258C108.706 520.258 109.206 520.167 109.789 519.984V521.758C109.195 522.023 108.466 522.156 107.602 522.156C106.648 522.156 105.953 521.917 105.516 521.438C105.083 520.953 104.867 520.229 104.867 519.266V515.055H103.727V514.047L105.039 513.25L105.727 511.406H107.25V513.266H109.695V515.055H107.25V519.266C107.25 519.604 107.344 519.854 107.531 520.016C107.724 520.177 107.977 520.258 108.289 520.258ZM120.516 522.156C119.49 522.156 118.685 521.784 118.102 521.039H117.977C118.06 521.768 118.102 522.19 118.102 522.305V525.844H115.719V513.266H117.656L117.992 514.398H118.102C118.659 513.534 119.484 513.102 120.578 513.102C121.609 513.102 122.417 513.5 123 514.297C123.583 515.094 123.875 516.201 123.875 517.617C123.875 518.549 123.737 519.359 123.461 520.047C123.19 520.734 122.802 521.258 122.297 521.617C121.792 521.977 121.198 522.156 120.516 522.156ZM119.812 515.008C119.224 515.008 118.794 515.19 118.523 515.555C118.253 515.914 118.112 516.51 118.102 517.344V517.602C118.102 518.539 118.24 519.211 118.516 519.617C118.797 520.023 119.24 520.227 119.844 520.227C120.911 520.227 121.445 519.346 121.445 517.586C121.445 516.727 121.312 516.083 121.047 515.656C120.786 515.224 120.375 515.008 119.812 515.008ZM132.031 522L131.711 520.883H131.586C131.331 521.289 130.969 521.604 130.5 521.828C130.031 522.047 129.497 522.156 128.898 522.156C127.872 522.156 127.099 521.883 126.578 521.336C126.057 520.784 125.797 519.992 125.797 518.961V513.266H128.18V518.367C128.18 518.997 128.292 519.471 128.516 519.789C128.74 520.102 129.096 520.258 129.586 520.258C130.253 520.258 130.734 520.036 131.031 519.594C131.328 519.146 131.477 518.406 131.477 517.375V513.266H133.859V522H132.031ZM142.453 519.406C142.453 520.302 142.141 520.984 141.516 521.453C140.896 521.922 139.966 522.156 138.727 522.156C138.091 522.156 137.549 522.112 137.102 522.023C136.654 521.94 136.234 521.815 135.844 521.648V519.68C136.286 519.888 136.784 520.062 137.336 520.203C137.893 520.344 138.383 520.414 138.805 520.414C139.669 520.414 140.102 520.164 140.102 519.664C140.102 519.477 140.044 519.326 139.93 519.211C139.815 519.091 139.617 518.958 139.336 518.812C139.055 518.661 138.68 518.487 138.211 518.289C137.539 518.008 137.044 517.747 136.727 517.508C136.414 517.268 136.185 516.995 136.039 516.688C135.898 516.375 135.828 515.992 135.828 515.539C135.828 514.763 136.128 514.164 136.727 513.742C137.331 513.315 138.185 513.102 139.289 513.102C140.341 513.102 141.365 513.331 142.359 513.789L141.641 515.508C141.203 515.32 140.794 515.167 140.414 515.047C140.034 514.927 139.646 514.867 139.25 514.867C138.547 514.867 138.195 515.057 138.195 515.438C138.195 515.651 138.307 515.836 138.531 515.992C138.76 516.148 139.258 516.38 140.023 516.688C140.706 516.964 141.206 517.221 141.523 517.461C141.841 517.701 142.076 517.977 142.227 518.289C142.378 518.602 142.453 518.974 142.453 519.406ZM152.375 522H149.992V516.898C149.992 515.638 149.523 515.008 148.586 515.008C147.919 515.008 147.438 515.234 147.141 515.688C146.844 516.141 146.695 516.875 146.695 517.891V522H144.312V509.844H146.695V512.32C146.695 512.513 146.677 512.966 146.641 513.68L146.586 514.383H146.711C147.242 513.529 148.086 513.102 149.242 513.102C150.268 513.102 151.047 513.378 151.578 513.93C152.109 514.482 152.375 515.273 152.375 516.305V522Z" fill="#002838"/>
<defs>
<linearGradient id="paint0_linear" x1="112.534" y1="826.537" x2="96.0235" y2="860.219" gradientUnits="userSpaceOnUse">
<stop offset="0.3" stop-color="#3E863D"/>
<stop offset="0.5" stop-color="#55934F"/>
<stop offset="0.8" stop-color="#5AAD45"/>
</linearGradient>
<linearGradient id="paint1_linear" x1="89.3452" y1="854.688" x2="119.419" y2="832.467" gradientUnits="userSpaceOnUse">
<stop offset="0.57" stop-color="#3E863D"/>
<stop offset="0.72" stop-color="#619857"/>
<stop offset="1" stop-color="#76AC64"/>
</linearGradient>
<linearGradient id="paint2_linear" x1="92.2116" y1="843.368" x2="117.078" y2="843.368" gradientUnits="userSpaceOnUse">
<stop offset="0.16" stop-color="#6BBF47"/>
<stop offset="0.38" stop-color="#79B461"/>
<stop offset="0.47" stop-color="#75AC64"/>
<stop offset="0.7" stop-color="#659E5A"/>
<stop offset="0.9" stop-color="#3E863D"/>
</linearGradient>
<clipPath id="clip0">
<rect width="120" height="120" fill="white" transform="translate(420 665)"/>
</clipPath>
<clipPath id="clip1">
<rect width="120" height="73.4937" fill="white" transform="translate(60 812)"/>
</clipPath>
<clipPath id="clip2">
<rect width="32" height="32" fill="white" transform="translate(671 67)"/>
</clipPath>
<clipPath id="clip3">
<rect width="120" height="106.766" fill="white" transform="translate(60 665)"/>
</clipPath>
<clipPath id="clip4">
<rect width="35.9665" height="32" fill="white" transform="translate(290 66)"/>
</clipPath>
</defs>
</svg>
