<svg width="16" height="16" viewBox="0 0 16 16" fill="none" xmlns="http://www.w3.org/2000/svg">
<path fill-rule="evenodd" clip-rule="evenodd" d="M0 1.22354L1.22353 0H5.1451V5.14511H0V1.22354ZM5.42745 0H10.5725V3.92157L9.31765 5.14511H6.65098L5.42745 3.92157V0ZM12.0784 5.42746L10.8549 6.65098V9.34903L12.0784 10.5726H16V5.42746H12.0784ZM5.42745 16H10.5725V12.0784L9.31765 10.8549H6.65098L5.42745 12.0784V16ZM16 16V12.0784L14.7765 10.8549H10.8549V16H16ZM10.8549 0V3.92157L12.0784 5.14511H16V0H10.8549ZM7.27844 8C7.27844 8.37647 7.59216 8.72157 8 8.72157C8.40785 8.72157 8.72157 8.40784 8.72157 8C8.72157 7.62353 8.40785 7.27844 8 7.27844C7.62353 7.27844 7.27844 7.59216 7.27844 8ZM5.1451 5.42746H0V10.5726H3.89019L5.1451 9.34903V5.42746ZM3.89019 10.8549L5.1451 12.0784V14.7765L3.89019 16H0V10.8549H3.89019Z" fill="#0ECAD4"/>
</svg>
